<svg width="123" height="74" viewBox="0 0 123 74" fill="none" xmlns="http://www.w3.org/2000/svg"><path d="M16.0054 50.7469L5.52246 32.6606H9.04309L17.4157 47.2055L25.8129 32.6606H29.3089L18.821 50.7469H16.0054Z" fill="white"></path><path d="M29.9547 50.7075C29.3334 50.7075 28.7664 50.5548 28.2585 50.2445C27.7457 49.9342 27.3413 49.5254 27.0406 49.0132C26.7398 48.5009 26.5869 47.9444 26.5869 47.3434V41.9156H38.4062V39.6006C38.4062 39.4676 38.3618 39.3544 38.2681 39.2608C38.1744 39.1672 38.061 39.1229 37.9279 39.1229L27.4449 39.0785L29.0721 36.1331H38.0314C38.6527 36.1331 39.2197 36.2858 39.7276 36.5863C40.2404 36.8867 40.6448 37.2955 40.9455 37.8028C41.2463 38.3151 41.3992 38.8815 41.3992 39.4972V50.7026H29.9547V50.7075ZM30.0533 47.7178H38.4012V44.6542H29.575V47.24C29.575 47.373 29.6194 47.4863 29.7131 47.5799C29.8068 47.6685 29.9202 47.7178 30.0533 47.7178Z" fill="white"></path><path d="M104.844 50.7075C104.223 50.7075 103.656 50.5548 103.148 50.2445C102.635 49.9342 102.231 49.5254 101.93 49.0132C101.629 48.5009 101.477 47.9444 101.477 47.3434V41.9156H113.296V39.6006C113.296 39.4676 113.251 39.3544 113.158 39.2608C113.064 39.1672 112.951 39.1229 112.818 39.1229L102.335 39.0785L103.962 36.1331H112.916C113.537 36.1331 114.104 36.2858 114.612 36.5863C115.125 36.8867 115.529 37.2955 115.83 37.8028C116.131 38.3151 116.284 38.8815 116.284 39.4972V50.7026H104.844V50.7075ZM104.943 47.7178H113.291V44.6542H104.465V47.24C104.465 47.373 104.509 47.4863 104.603 47.5799C104.696 47.6685 104.81 47.7178 104.943 47.7178Z" fill="white"></path><path d="M78.3017 50.2396C77.7889 49.9293 77.3796 49.5205 77.069 49.0082C76.7583 48.496 76.6055 47.9394 76.6055 47.3385V39.5021C76.6055 38.9012 76.7583 38.3446 77.069 37.8324C77.3796 37.3201 77.7889 36.9113 78.3017 36.601C78.8145 36.2907 79.3717 36.138 79.9732 36.138H88.045C88.6663 36.138 89.2334 36.2907 89.7412 36.5911C90.2541 36.8916 90.6584 37.3004 90.9592 37.8077C91.2599 38.32 91.4128 38.8864 91.4128 39.5021V44.9299H79.5936V47.24C79.5936 47.373 79.6379 47.4862 79.7316 47.5798C79.8253 47.6734 79.9387 47.7177 80.0719 47.7177H91.4128V50.7075H79.9732C79.3717 50.7075 78.8145 50.5499 78.3017 50.2396ZM79.5985 42.1914H88.4247V39.6006C88.4247 39.4676 88.3803 39.3543 88.2866 39.2607C88.193 39.1672 88.0796 39.1228 87.9464 39.1228H80.0768C79.9436 39.1228 79.8302 39.1672 79.7366 39.2607C79.6429 39.3543 79.5985 39.4676 79.5985 39.6006V42.1914Z" fill="white"></path><path d="M74.4411 37.8324C74.1403 37.3201 73.7311 36.9113 73.2232 36.601C72.7104 36.2907 72.1433 36.138 71.527 36.138H54.8065L53.1694 38.9603V50.7075H56.1871V39.6006C56.1871 39.4676 56.2315 39.3543 56.3252 39.2607C56.4189 39.1672 56.5224 39.1228 56.6408 39.1228H62.0745C62.1929 39.1228 62.2964 39.1672 62.3901 39.2607C62.4838 39.3543 62.5282 39.4676 62.5282 39.6006V50.7026H65.5705V39.6006C65.5705 39.4676 65.6149 39.3543 65.7086 39.2607C65.8023 39.1672 65.9058 39.1228 66.0241 39.1228H71.4333C71.5664 39.1228 71.6798 39.1672 71.7735 39.2607C71.8672 39.3543 71.9116 39.4676 71.9116 39.6006V50.7026H74.9046V39.5021C74.8948 38.9012 74.7419 38.3446 74.4411 37.8324Z" fill="white"></path><path d="M46.2711 36.138C45.6695 36.138 45.1123 36.2907 44.5995 36.601C44.0867 36.9113 43.6775 37.3202 43.3668 37.8324C43.0562 38.3446 42.9033 38.9012 42.9033 39.5021V50.7075H45.8963V39.6006C45.8963 39.4676 45.9407 39.3544 46.0344 39.2608C46.1281 39.1672 46.2415 39.1229 46.3746 39.1229H51.483L53.2088 36.1331H46.2711V36.138Z" fill="white"></path><path d="M102.192 36.0888H96.388V32.1977H93.395V47.2942C93.395 47.8951 93.5479 48.4517 93.8487 48.9639C94.1494 49.4762 94.5587 49.885 95.0666 50.1953C95.5794 50.5056 96.1464 50.6583 96.7628 50.6583L101.146 50.5549V47.5651L96.8663 47.6685C96.7332 47.6685 96.6198 47.6242 96.5261 47.5306C96.4324 47.437 96.388 47.3238 96.388 47.1908V39.0785H100.476L102.187 36.1134V36.0888H102.192Z" fill="white"></path><path d="M65.8563 31.3012L62.7154 25.8438C62.5527 25.5582 62.1385 25.5582 61.9758 25.8438L58.825 31.3012C58.6622 31.5869 58.8644 31.9415 59.1948 31.9415H65.4915C65.812 31.9415 66.0191 31.5869 65.8563 31.3012Z" fill="white"></path><path d="M65.4076 17.4262L65.4125 17.4164H64.5052C64.3524 17.4164 64.2094 17.5001 64.1354 17.6282L62.7055 20.1057C62.5428 20.3914 62.1286 20.3914 61.9658 20.1057L60.5408 17.6282C60.4669 17.4952 60.3239 17.4164 60.171 17.4164L43.914 17.4262C43.5836 17.4262 43.3815 17.7809 43.5442 18.0665L51.4286 31.7445C51.5026 31.8775 51.6456 31.9563 51.7984 31.9563H56.7835C56.9364 31.9563 57.0794 31.8726 57.1533 31.7445L61.9658 23.4008C62.1286 23.1151 62.5428 23.1151 62.7055 23.4008L67.518 31.7445C67.5919 31.8775 67.7349 31.9563 67.8878 31.9563H72.8729C73.0257 31.9563 73.1687 31.8726 73.2427 31.7445L81.137 18.0567C81.2997 17.771 81.0975 17.4164 80.7672 17.4164L65.4076 17.4262Z" fill="white"></path></svg>